<svg width="150" height="22" viewBox="0 0 150 22" fill="none" xmlns="http://www.w3.org/2000/svg">
<path d="M11.3118 0.00011172H17.7473V4.22621H11.3118V21.965H6.4355V4.2262H0V0.00011172H6.4355H11.3118Z" fill="rgb(108, 99, 255)"/>
<path d="M58.1328 0.159312C57.6092 0.0556375 57.0666 7.68072e-05 56.5096 7.68072e-05L50.8079 0L45.9316 7.21523e-05V21.965H50.808V14.6569H56.5096C60.7297 14.6569 64.1631 11.5487 64.1631 7.32847C64.1631 3.66522 61.5755 0.841322 58.1328 0.159312ZM56.5096 10.4309H50.808V4.22613H56.5096C58.0411 4.22613 59.2868 5.79702 59.2868 7.32847C59.2868 8.63671 58.3766 9.97031 57.1569 10.3323C56.9488 10.3941 56.7328 10.4309 56.5096 10.4309Z" fill="rgb(108, 99, 255)"/>
<path d="M84.5849 6.53024L89.3879 0V0.000521358V7.15199V21.9639H84.5119V13.781L78.4921 21.965L72.4722 13.781V21.9639H67.5962V7.15199V0.000521358V0L72.3992 6.53024L78.4921 14.8135L84.5849 6.53024Z" fill="rgb(108, 99, 255)"/>
<path d="M94.1514 0H99.0277V21.965H94.1514V0Z" fill="rgb(108, 99, 255)"/>
<path d="M119.432 0H124.308V16.4388V21.9639V21.965L108.68 9.43539V21.9638H103.804V3.72399e-05L119.432 12.5296V0Z" fill="rgb(108, 99, 255)"/>
<path d="M138.783 0H133.941L129.072 3.49124e-05V17.7107V21.9301H138.783C144.828 21.9301 149.747 17.1901 149.747 10.965C149.747 4.7399 144.828 0 138.783 0ZM138.783 17.7107L133.941 17.7107V4.21939H138.783C142.144 4.21939 144.878 7.4244 144.878 10.965C144.878 14.5056 142.144 17.7107 138.783 17.7107Z" fill="rgb(108, 99, 255)"/>
<path fill-rule="evenodd" clip-rule="evenodd" d="M31.1221 0.536962C30.7227 -0.122588 29.7706 -0.122593 29.3707 0.536962L17.8979 19.4749C17.4815 20.162 17.9737 21.0423 18.7736 21.0423H21.2961L32.3721 2.6001L31.1221 0.536962ZM33.2083 3.98054L33.2858 4.11158L23.2992 21.0423H28.0531L35.7591 8.19035L33.2083 3.98054ZM30.2464 21.0423H30.0511L36.6645 9.68482L39.2644 13.977L34.9705 21.0423H30.2464ZM36.9675 21.0423H41.7198C42.5196 21.0423 43.0113 20.162 42.5955 19.4749L40.075 15.3147L36.9675 21.0423Z" fill="rgb(62, 58, 141)"/>
</svg>
