<svg width="39" height="31" viewBox="0 0 39 31" fill="none" xmlns="http://www.w3.org/2000/svg">
<path d="M1.79311 30.2115L19.6379 1L22.6121 5.76923L7.74138 30.2115H1.79311Z" fill="rgb(78, 72, 180)"/>
<path d="M27.3707 12.9231L23.8017 7.55769L10.1207 30.2115H16.6638L27.3707 12.9231Z" fill="rgb(78, 72, 180)"/>
<path d="M32.1293 20.6731L28.5603 14.7115L19.0431 30.2115H26.181L32.1293 20.6731Z" fill="rgb(78, 72, 180)"/>
<path d="M37.4828 30.2115L33.319 22.4615L28.5603 30.2115H37.4828Z" fill="rgb(78, 72, 180)"/>
<path d="M1.79311 30.2115L19.6379 1L22.6121 5.76923L7.74138 30.2115H1.79311Z" stroke="rgb(78, 72, 180)"/>
<path d="M27.3707 12.9231L23.8017 7.55769L10.1207 30.2115H16.6638L27.3707 12.9231Z" stroke="rgb(78, 72, 180)"/>
<path d="M32.1293 20.6731L28.5603 14.7115L19.0431 30.2115H26.181L32.1293 20.6731Z" stroke="rgb(78, 72, 180)"/>
<path d="M37.4828 30.2115L33.319 22.4615L28.5603 30.2115H37.4828Z" stroke="rgb(78, 72, 180)"/>
</svg>
