<svg width="713" height="561" viewBox="0 0 713 561" fill="none" xmlns="http://www.w3.org/2000/svg">
<rect width="713" height="561" fill="#D2D2D2"/>
<rect width="713" height="561" fill="white"/>
<path d="M103.793 124.212L121.638 95L124.612 99.7692L109.741 124.212H103.793Z" fill="#6C63FF"/>
<path d="M129.371 106.923L125.802 101.558L112.121 124.212H118.664L129.371 106.923Z" fill="#6C63FF"/>
<path d="M134.129 114.673L130.56 108.712L121.043 124.212H128.181L134.129 114.673Z" fill="#6C63FF"/>
<path d="M139.483 124.212L135.319 116.462L130.56 124.212H139.483Z" fill="#6C63FF"/>
<path d="M103.793 124.212L121.638 95L124.612 99.7692L109.741 124.212H103.793Z" stroke="#6C63FF"/>
<path d="M129.371 106.923L125.802 101.558L112.121 124.212H118.664L129.371 106.923Z" stroke="#6C63FF"/>
<path d="M134.129 114.673L130.56 108.712L121.043 124.212H128.181L134.129 114.673Z" stroke="#6C63FF"/>
<path d="M139.483 124.212L135.319 116.462L130.56 124.212H139.483Z" stroke="#6C63FF"/>
</svg>
